name analog
datacolumns 19
datarows 23
range 0.0 0.011
endheader
time	ground_force_vx	ground_force_vy	ground_force_vz	ground_force_px	ground_force_py	ground_force_pz	l_ground_force_vx	l_ground_force_vy	l_ground_force_vz	l_ground_force_px	l_ground_force_py	l_ground_force_pz	ground_torque_x	ground_torque_y	ground_torque_z	l_ground_torque_x	l_ground_torque_y	l_ground_torque_z
0.0	-0.0	-0.0	-0.0	9.31149673461914	15.419559478759766	-337.36181640625	-7.071138381958008	-26.735858917236328	-379.3972473144531	-0.0	-0.0	-0.0	-0.0	-0.0	-0.0	123382.0390625	16083.2880859375	-5289.52685546875
0.0005	-0.0	-0.0	-0.0	9.222399711608888	14.906534194946287	-335.1965026855469	-6.701353073120117	-27.066925048828125	-382.2919921875	-0.0	-0.0	-0.0	-0.0	-0.0	-0.0	124120.3203125	16005.0927734375	-5253.51123046875
0.001	-0.0	-0.0	-0.0	8.935418128967285	14.590764045715332	-332.2569885253906	-6.605302333831787	-27.508569717407227	-385.7098388671875	-0.0	-0.0	-0.0	-0.0	-0.0	-0.0	124491.0234375	15962.7783203125	-5237.439453125
0.0015	-0.0	-0.0	-0.0	9.147643089294434	14.041601181030272	-328.6976013183594	-6.69403886795044	-28.270158767700195	-387.0488586425781	-0.0	-0.0	-0.0	-0.0	-0.0	-0.0	125351.1796875	15989.673828125	-5132.625
0.002	-0.0	-0.0	-0.0	8.516075134277344	13.897292137145996	-325.3296203613281	-6.708428382873535	-28.84060287475586	-389.332275390625	-0.0	-0.0	-0.0	-0.0	-0.0	-0.0	125750.171875	15935.9677734375	-5278.6630859375
0.0025	-0.0	-0.0	-0.0	8.173233032226562	13.465665817260742	-322.96923828125	-6.420880317687988	-29.472957611083984	-391.0498046875	-0.0	-0.0	-0.0	-0.0	-0.0	-0.0	126726.484375	16090.67578125	-5248.94287109375
0.003	-0.0	-0.0	-0.0	8.673771858215332	12.896215438842772	-319.60040283203125	-6.837779998779297	-30.16536521911621	-394.2754211425781	-0.0	-0.0	-0.0	-0.0	-0.0	-0.0	127650.3359375	15853.2802734375	-5203.73193359375
0.0035	-0.0	-0.0	-0.0	7.864233016967773	12.491951942443848	-318.0792541503906	-6.428044319152832	-30.65456962585449	-398.6526489257813	-0.0	-0.0	-0.0	-0.0	-0.0	-0.0	128838.3359375	15886.3212890625	-5043.9111328125
0.004	-0.0	-0.0	-0.0	7.802530288696289	12.334402084350586	-313.5142822265625	-6.482787132263184	-31.4155330657959	-402.4651489257813	-0.0	-0.0	-0.0	-0.0	-0.0	-0.0	130000.1953125	16233.64453125	-5235.7685546875
0.0045000000000000005	-0.0	-0.0	-0.0	7.720072746276855	11.984678268432615	-309.0057983398437	-6.469038486480713	-31.992908477783203	-407.1647033691406	-0.0	-0.0	-0.0	-0.0	-0.0	-0.0	131107.03125	16239.7802734375	-5160.5830078125
0.005	-0.0	-0.0	-0.0	7.870480060577393	11.806455612182615	-308.2997436523437	-5.936849117279053	-32.69926071166992	-410.4410705566406	-0.0	-0.0	-0.0	-0.0	-0.0	-0.0	132331.484375	16448.974609375	-5055.41455078125
0.0055	-0.0	-0.0	-0.0	8.131309509277344	11.230430603027344	-303.51910400390625	-5.889219284057617	-33.28312683105469	-414.7098388671875	-0.0	-0.0	-0.0	-0.0	-0.0	-0.0	133641.53125	16323.099609375	-5051.04931640625
0.006	-0.0	-0.0	-0.0	8.00937271118164	10.893465042114258	-299.9359741210937	-5.731816291809082	-34.133026123046875	-418.7942810058594	-0.0	-0.0	-0.0	-0.0	-0.0	-0.0	134681.6875	16341.6083984375	-4875.42626953125
0.006500000000000001	-0.0	-0.0	-0.0	8.32237434387207	10.67363452911377	-296.6456298828125	-5.513213157653809	-35.022823333740234	-422.014404296875	-0.0	-0.0	-0.0	-0.0	-0.0	-0.0	135784.5625	16404.041015625	-4923.31396484375
0.007	-0.0	-0.0	-0.0	8.570582389831543	9.66746425628662	-291.398681640625	-5.27504301071167	-35.770286560058594	-427.012451171875	-0.0	-0.0	-0.0	-0.0	-0.0	-0.0	137494.453125	16543.41796875	-4877.73974609375
0.0075	-0.0	-0.0	-0.0	8.506575584411621	9.358692169189451	-286.5180358886719	-5.446054458618164	-36.84296798706055	-432.2243957519531	-0.0	-0.0	-0.0	-0.0	-0.0	-0.0	138679.65625	16647.390625	-4935.30859375
0.008	-0.0	-0.0	-0.0	8.682387351989746	9.068608283996582	-283.62823486328125	-5.417737007141113	-37.625038146972656	-436.3026123046875	-0.0	-0.0	-0.0	-0.0	-0.0	-0.0	140163.859375	17042.771484375	-4923.875
0.0085	-0.0	-0.0	-0.0	8.141134262084961	8.597996711730957	-276.65533447265625	-5.642590522766113	-38.697452545166016	-440.3049926757813	-0.0	-0.0	-0.0	-0.0	-0.0	-0.0	141261.046875	17072.84375	-4906.30078125
0.009000000000000001	-0.0	-0.0	-0.0	8.0643949508667	8.54432201385498	-272.9355773925781	-5.2401652336120605	-39.45734024047852	-444.9814758300781	-0.0	-0.0	-0.0	-0.0	-0.0	-0.0	141997.171875	17007.033203125	-4979.3515625
0.0095	-0.0	-0.0	-0.0	7.350789070129394	8.152408599853516	-268.9585266113281	-5.382445812225342	-40.51087188720703	-447.63671875	-0.0	-0.0	-0.0	-0.0	-0.0	-0.0	143082.859375	17178.458984375	-4938.34814453125
0.01	-0.0	-0.0	-0.0	6.589624404907227	8.092952728271484	-264.76666259765625	-5.760098934173584	-41.71213912963867	-450.8692932128906	-0.0	-0.0	-0.0	-0.0	-0.0	-0.0	144366.0	17476.3671875	-5025.87353515625
0.0105	-0.0	-0.0	-0.0	6.280488967895508	7.706831932067871	-262.83599853515625	-5.890226364135742	-42.54789733886719	-456.2021789550781	-0.0	-0.0	-0.0	-0.0	-0.0	-0.0	145516.5	17707.216796875	-5164.73046875
0.011	-0.0	-0.0	-0.0	6.066314697265625	7.231251239776611	-259.1153869628906	-6.121044158935547	-43.36595153808594	-460.5780334472656	-0.0	-0.0	-0.0	-0.0	-0.0	-0.0	146211.578125	17730.529296875	-5190.74462890625
